<svg xmlns="http://www.w3.org/2000/svg" width="114.5" height="114.5" viewBox="0 0 114.5 114.5"><defs><style>.a{fill:#c0ff55;}.b{fill-rule:evenodd;}</style></defs><circle class="a" cx="57.28" cy="62.93" r="60"/><path class="b" d="M57.25,44C69.08,44,78.81,47.46,80,51.89c-3-4-12-6.83-22.73-6.83s-19.73,2.87-22.72,6.83C35.69,47.46,45.42,44,57.25,44m0,4,.87,2.8,2.74,0-2.25,1.74.87,2.75-2.26-1.73L55,55.28l.86-2.81-2.24-1.68h2.79ZM42.59,66.91a2.74,2.74,0,0,0-1.21.71,2.68,2.68,0,0,0-.8,1.93,2.72,2.72,0,0,0,2,2.63Zm13.39,2L54.91,73H59.6l-1.07-4.08c-.42,0-.85,0-1.28,0S56.4,68.89,56,68.87Zm4-.12,1.25,4.75.23.9H53l.24-.9,1.24-4.75A19.67,19.67,0,0,1,44,64.62V76.21c0,3.75,3.38,6.17,7.69,7.25a23.5,23.5,0,0,0,11.06,0c4.32-1.08,7.69-3.5,7.69-7.25V64.62A19.67,19.67,0,0,1,60,68.75Zm10.49-8a41.72,41.72,0,0,0-13.22-2A41.72,41.72,0,0,0,44,60.8v2.62A42.34,42.34,0,0,1,57.25,61.5a42.34,42.34,0,0,1,13.22,1.92Zm1.45,11.38a2.74,2.74,0,0,0,1.2-.7,2.71,2.71,0,0,0,.8-1.93,2.68,2.68,0,0,0-.8-1.93,2.76,2.76,0,0,0-1.2-.71Zm0-6.75a4.18,4.18,0,0,1,0,8.23v2.55c0,4.54-3.86,7.42-8.79,8.65a25,25,0,0,1-11.76,0c-4.93-1.23-8.78-4.11-8.78-8.65V73.66a4.18,4.18,0,0,1,0-8.23V61.11c-6.73-1.89-11.14-5.06-11.14-8.64C31.45,46.66,43,42,57.25,42s25.8,4.7,25.8,10.51c0,3.58-4.41,6.75-11.13,8.64ZM51.47,79.11a3.07,3.07,0,0,1,.35-1.53,2,2,0,0,1,1.85-1h7.16a2,2,0,0,1,1.85,1A3.07,3.07,0,0,1,63,79.11H61.59a1.7,1.7,0,0,0-.16-.81.62.62,0,0,0-.6-.28H53.67a.62.62,0,0,0-.6.28,1.7,1.7,0,0,0-.15.81ZM24.05,61.51,0,44.4l29.74,0A33.07,33.07,0,0,0,24.05,61.51ZM45.57,94.12,21.87,111.7,31,83.4A33.32,33.32,0,0,0,45.57,94.12Zm37.67-10.4,9.39,28L68.55,94.26A33.28,33.28,0,0,0,83.24,83.72Zm1.75-39,29.51-.29-24,17.52A33.09,33.09,0,0,0,85,44.69ZM57.25,2.8l9.23,28.26A33.29,33.29,0,0,0,48.41,31Z"/></svg>