<svg xmlns="http://www.w3.org/2000/svg" width="114.5" height="141.73" viewBox="0 0 114.5 141.73"><defs><style>.a{fill:#fefefe;fill-rule:evenodd;}</style></defs><path class="a" d="M79.26,90.48A3.07,3.07,0,0,1,79.61,89a2,2,0,0,1,1.85-1h7.16a2,2,0,0,1,1.85,1,3.07,3.07,0,0,1,.35,1.53H89.38a1.7,1.7,0,0,0-.16-.81.62.62,0,0,0-.6-.28H81.46a.62.62,0,0,0-.6.28,1.7,1.7,0,0,0-.16.81Zm4.17-9.23c.53,0,1.07,0,1.61,0s1.08,0,1.61,0l.73,3.08H82.7Zm16.29-4.44a4.17,4.17,0,0,1,0,8.22v2.55c0,4.54-3.85,7.42-8.78,8.66a25.4,25.4,0,0,1-11.76,0c-4.93-1.24-8.79-4.12-8.79-8.66V85a4.17,4.17,0,0,1,0-8.22,24.62,24.62,0,0,0,11.75,4.33L81,85.63h8.06L88,81.14A24.62,24.62,0,0,0,99.72,76.81ZM85,52.46c14.25,0,25.8,5.82,25.8,10.51s-4.19,6.65-10.64,8.5A47,47,0,0,0,85,69.16a47,47,0,0,0-15.16,2.31c-6.45-1.85-10.64-3.92-10.64-8.5S70.79,52.46,85,52.46Zm-13.2,66.86h4.08a2,2,0,0,1,2,2v4.32a.7.7,0,0,1-.23.53.74.74,0,0,1-.53.23v0a.73.73,0,0,1,.53.22.74.74,0,0,1,.23.54v4.34a2,2,0,0,1-2,2H71.84Zm2,2v4.1h1.29a.74.74,0,0,0,.55-.22.75.75,0,0,0,.22-.55v-2.55a.76.76,0,0,0-.22-.56.74.74,0,0,0-.55-.22Zm0,6.12v4.1h1.29a.75.75,0,0,0,.55-.23.74.74,0,0,0,.22-.55v-2.55a.74.74,0,0,0-.22-.55.78.78,0,0,0-.55-.22Zm6,6.12V119.3H86v2H81.93v4.08H85v2H81.93v4.08H86v2Zm7-4.08v1a2.91,2.91,0,0,0,.9,2.16,3,3,0,0,0,2.16.9,3.07,3.07,0,0,0,3.06-3.06v-2A3.06,3.06,0,0,0,90,125.42a1,1,0,0,1-1-1v-2a1,1,0,0,1,1.75-.72,1,1,0,0,1,.29.72v1h2v-1a3,3,0,0,0-.9-2.16,2.91,2.91,0,0,0-2.16-.9,3.07,3.07,0,0,0-3.06,3.06v2A3,3,0,0,0,90,127.46a1,1,0,0,1,1,1v2a1,1,0,0,1-1.74.72,1,1,0,0,1-.3-.72v-1Zm6.63-10.2h6.11v2h-2v12.24h-2V121.34h-2ZM53,138.06h5.1a2.51,2.51,0,0,1,2.53,2.54v12.78a2.53,2.53,0,0,1-2.53,2.53H53Zm2.53,2.52v12.8h1.61a1,1,0,0,0,1-1V141.55a.94.94,0,0,0-.28-.69.9.9,0,0,0-.68-.28Zm10.15,15.33H63.11V138.06h2.55Zm3.49-16.73a3.82,3.82,0,0,1,6.52,2.71v1.27H73.13v-1.27a1.28,1.28,0,0,0-1.28-1.29,1.22,1.22,0,0,0-.9.38,1.23,1.23,0,0,0-.37.91v10.2a1.22,1.22,0,0,0,.37.9,1.24,1.24,0,0,0,.9.36,1.26,1.26,0,0,0,.91-.36,1.22,1.22,0,0,0,.37-.9V150.8h2.54v1.29a3.84,3.84,0,0,1-3.82,3.82,3.69,3.69,0,0,1-2.7-1.13A3.64,3.64,0,0,1,68,152.09v-10.2A3.68,3.68,0,0,1,69.15,139.18Zm6.95-1.12h7.64v2.54H81.19v15.31H78.65V140.6H76.1Zm10.55,0h2.52L93,155.91H90.47l-.76-3.82-3.6,0-.76,3.85H82.83Zm1.25,5.1-1.28,6.4H89.2l-1.27-6.4Zm4.17-5.1h7.65v2.54H97.17v15.31H94.63V140.6H92.07Zm9.45,1.12a3.82,3.82,0,0,1,6.52,2.71v10.2a3.64,3.64,0,0,1-1.12,2.69,3.79,3.79,0,0,1-5.4,0,3.64,3.64,0,0,1-1.12-2.69v-10.2A3.68,3.68,0,0,1,101.52,139.18Zm3.61,1.8a1.24,1.24,0,0,0-.91-.38,1.22,1.22,0,0,0-.9.38,1.23,1.23,0,0,0-.37.91v10.2a1.22,1.22,0,0,0,.37.9,1.24,1.24,0,0,0,.9.36,1.26,1.26,0,0,0,.91-.36,1.22,1.22,0,0,0,.37-.9v-10.2A1.23,1.23,0,0,0,105.13,141Zm5.2-2.9,5.11,0a2.45,2.45,0,0,1,1.79.75,2.41,2.41,0,0,1,.73,1.78v5.1a2.4,2.4,0,0,1-1.25,2.2l1.25,8h-2.52l-1.27-7.65h-1.31v7.65h-2.53Zm2.53,2.52v5.16h1.61a.94.94,0,0,0,.69-.29,1,1,0,0,0,.28-.68V141.6a1,1,0,0,0-.28-.7.92.92,0,0,0-.69-.3ZM85,14.17l9.23,28.27a33.42,33.42,0,0,0-18.07-.11Zm27.74,41.89,29.51-.29-24,17.52A33.18,33.18,0,0,0,112.78,56.06Zm-1.76,39,9.4,28L96.34,105.63A33.25,33.25,0,0,0,111,95.09Zm-37.66,10.4-23.7,17.58,9.14-28.3A33.26,33.26,0,0,0,73.36,105.49ZM51.84,72.88,27.79,55.77l29.74-.05A33.1,33.1,0,0,0,51.84,72.88Zm55.73,49.24,1,3.08,3.19,0-2.62,1.91,1,3-2.62-1.91L105,130.11l1-3.09-2.6-1.85h3.24Zm-45.06,0,1,3.08,3.19,0-2.62,1.91,1,3-2.63-1.91-2.56,1.91,1-3.09-2.6-1.85h3.25ZM85,59.39l.87,2.8,2.74,0L86.4,63.9l.87,2.75L85,64.92l-2.2,1.73.85-2.81-2.23-1.68h2.79ZM99.7,72.75a50.86,50.86,0,0,0-14.66-2,51,51,0,0,0-14.67,2v2.62A51.79,51.79,0,0,1,85,73.45,51.66,51.66,0,0,1,99.7,75.37ZM85,54.73A48.74,48.74,0,0,1,100.46,57c4.2,1.46,7,3.52,7.65,5.87a.36.36,0,0,1-.25.44.38.38,0,0,1-.4-.15C106,61.24,103,59.56,99,58.38a49.41,49.41,0,0,0-14-1.87,49.41,49.41,0,0,0-14,1.87c-4,1.19-7,2.87-8.45,4.81a.36.36,0,0,1-.63-.31h0c.61-2.35,3.45-4.41,7.65-5.87A48.74,48.74,0,0,1,85,54.73Z" transform="translate(-27.79 -14.17)"/></svg>