<svg xmlns="http://www.w3.org/2000/svg" width="114.5" height="141.73" viewBox="0 0 114.5 141.73"><defs><style>.a{fill-rule:evenodd;}</style></defs><path class="a" d="M85,55.39c11.83,0,21.56,3.45,22.72,7.87-3-3.95-12-6.83-22.72-6.83s-19.73,2.88-22.73,6.83c1.17-4.42,10.9-7.87,22.73-7.87m0,4,.87,2.8,2.74,0L86.4,63.9l.87,2.75L85,64.92l-2.2,1.73.85-2.81-2.23-1.68h2.79ZM70.37,78.28a2.76,2.76,0,0,0-1.2.71,2.68,2.68,0,0,0-.8,1.93,2.71,2.71,0,0,0,.8,1.93,2.74,2.74,0,0,0,1.2.7Zm13.39,2L82.7,84.33h4.68l-1.07-4.09c-.42,0-.84,0-1.27,0S84.19,80.26,83.76,80.24Zm4-.12L89,84.87l.24.9H80.83l.23-.9,1.25-4.75A19.67,19.67,0,0,1,71.82,76V87.58c0,3.75,3.37,6.17,7.69,7.26a23.85,23.85,0,0,0,11.06,0c4.32-1.09,7.69-3.51,7.69-7.26V76A19.67,19.67,0,0,1,87.77,80.12Zm10.49-8a41.72,41.72,0,0,0-13.22-2,41.72,41.72,0,0,0-13.22,2v2.62A42.34,42.34,0,0,1,85,72.87a42.34,42.34,0,0,1,13.22,1.92ZM99.7,83.55a2.72,2.72,0,0,0,2-2.63,2.68,2.68,0,0,0-.8-1.93,2.74,2.74,0,0,0-1.21-.71Zm0-6.75a4.18,4.18,0,0,1,0,8.23v2.55c0,4.54-3.85,7.42-8.78,8.66a25.4,25.4,0,0,1-11.76,0c-4.93-1.24-8.79-4.12-8.79-8.66V85a4.18,4.18,0,0,1,0-8.23V72.48c-6.72-1.89-11.13-5.06-11.13-8.64C59.24,58,70.79,53.33,85,53.33s25.8,4.7,25.8,10.51c0,3.58-4.41,6.75-11.14,8.64ZM79.26,90.48A3.07,3.07,0,0,1,79.61,89a2,2,0,0,1,1.85-1h7.16a2,2,0,0,1,1.85,1,3.07,3.07,0,0,1,.35,1.53H89.38a1.7,1.7,0,0,0-.16-.81.62.62,0,0,0-.6-.28H81.46a.62.62,0,0,0-.6.28,1.7,1.7,0,0,0-.16.81ZM62.51,122.12l1,3.08,3.19,0-2.62,1.91,1,3-2.63-1.91-2.56,1.91,1-3.09-2.6-1.85h3.25Zm45.06,0,1,3.08,3.19,0-2.62,1.91,1,3-2.62-1.91L105,130.11l1-3.09-2.6-1.85h3.24ZM51.84,72.88,27.79,55.77l29.74-.05A33.1,33.1,0,0,0,51.84,72.88Zm21.52,32.61-23.7,17.58,9.14-28.3A33.26,33.26,0,0,0,73.36,105.49ZM111,95.09l9.4,28L96.34,105.63A33.25,33.25,0,0,0,111,95.09Zm1.76-39,29.51-.29-24,17.52A33.18,33.18,0,0,0,112.78,56.06ZM85,14.17l9.23,28.27a33.42,33.42,0,0,0-18.07-.11ZM112.86,140.6v5.16h1.61a.94.94,0,0,0,.69-.29,1,1,0,0,0,.28-.68V141.6a1,1,0,0,0-.28-.7.92.92,0,0,0-.69-.3Zm-2.53-2.52,5.11,0a2.45,2.45,0,0,1,1.79.75,2.42,2.42,0,0,1,.74,1.78v5.1a2.4,2.4,0,0,1-1.26,2.2l1.26,8h-2.53l-1.27-7.65h-1.31v7.65h-2.53Zm-5.2,2.9a1.24,1.24,0,0,0-.91-.38,1.22,1.22,0,0,0-.9.38,1.23,1.23,0,0,0-.37.91v10.2a1.22,1.22,0,0,0,.37.9,1.24,1.24,0,0,0,.9.36,1.26,1.26,0,0,0,.91-.36,1.22,1.22,0,0,0,.37-.9v-10.2A1.23,1.23,0,0,0,105.13,141Zm-3.61-1.8a3.82,3.82,0,0,1,6.52,2.71v10.2a3.64,3.64,0,0,1-1.12,2.69,3.79,3.79,0,0,1-5.4,0,3.64,3.64,0,0,1-1.12-2.69v-10.2A3.68,3.68,0,0,1,101.52,139.18Zm-9.45-1.12h7.65v2.54H97.17v15.31H94.63V140.6H92.07Zm-4.17,5.1-1.28,6.4H89.2l-1.27-6.4Zm-1.25-5.1h2.52L93,155.91H90.47l-.76-3.82-3.6,0-.76,3.85H82.83Zm-10.55,0h7.64v2.54H81.19v15.31H78.65V140.6H76.1Zm-6.95,1.12a3.82,3.82,0,0,1,6.52,2.71v1.27H73.13v-1.27a1.28,1.28,0,0,0-1.28-1.29,1.22,1.22,0,0,0-.9.38,1.23,1.23,0,0,0-.37.91v10.2a1.22,1.22,0,0,0,.37.9,1.24,1.24,0,0,0,.9.36,1.26,1.26,0,0,0,.91-.36,1.22,1.22,0,0,0,.37-.9V150.8h2.54v1.29a3.84,3.84,0,0,1-3.82,3.82,3.69,3.69,0,0,1-2.7-1.13A3.64,3.64,0,0,1,68,152.09v-10.2A3.68,3.68,0,0,1,69.15,139.18Zm-3.49,16.73H63.11V138.06h2.55ZM55.51,140.58v12.8h1.61a1,1,0,0,0,1-1V141.55a.94.94,0,0,0-.28-.69.9.9,0,0,0-.68-.28ZM53,138.06h5.1a2.53,2.53,0,0,1,2.53,2.54v12.78a2.53,2.53,0,0,1-2.53,2.53H53ZM93.57,119.3h6.11v2h-2v12.24h-2V121.34h-2Zm-6.63,10.2v1a2.91,2.91,0,0,0,.9,2.16,3,3,0,0,0,2.16.9,3.07,3.07,0,0,0,3.06-3.06v-2A3.06,3.06,0,0,0,90,125.42a1,1,0,0,1-1-1v-2a1,1,0,0,1,1.75-.72,1,1,0,0,1,.29.72v1h2v-1a3,3,0,0,0-.9-2.16,2.91,2.91,0,0,0-2.16-.9,3.07,3.07,0,0,0-3.06,3.06v2A3,3,0,0,0,90,127.46a1,1,0,0,1,1,1v2a1,1,0,0,1-1.74.72,1,1,0,0,1-.3-.72v-1Zm-7,4.08V119.3H86v2H81.93v4.08H85v2H81.93v4.08H86v2Zm-6-6.12v4.1h1.29a.75.75,0,0,0,.55-.23.74.74,0,0,0,.22-.55v-2.55a.74.74,0,0,0-.22-.55.78.78,0,0,0-.55-.22Zm0-6.12v4.1h1.29a.74.74,0,0,0,.55-.22.75.75,0,0,0,.22-.55v-2.55a.76.76,0,0,0-.22-.56.74.74,0,0,0-.55-.22Zm-2-2h4.08a2,2,0,0,1,2,2v4.32a.7.7,0,0,1-.23.53.74.74,0,0,1-.53.23v0a.73.73,0,0,1,.53.22.74.74,0,0,1,.23.54v4.34a2,2,0,0,1-2,2H71.84Z" transform="translate(-27.79 -14.17)"/></svg>